<svg width="1280" height="800" viewBox="0 0 1280 800" fill="none" xmlns="http://www.w3.org/2000/svg"><defs>
    <style type="text/css"><![CDATA[
			.line {
                animation: animation 4s ease infinite;
			}
			@keyframes animation {
			    0% {
                    transform-origin: 0 0;
                    transform: scaleX(0);
			    }
			    15% {
                    transform-origin: 0 0;
                    transform: scaleX(1);
			    }
			    15.001% {
                    transform-origin: 100% 0;
			    }
			    25% {
                    transform-origin: 100% 0;
                    transform: scaleX(1);
			    }
			    40% {
                    transform-origin: 100% 0;
                    transform: scaleX(0);
			    }
			    100% {
                    transform-origin: 0 0;
                    transform: scaleX(0);
			    }
			}
		]]></style>
</defs>
<rect width="1280" height="800" fill="#F3F3F3"/>
<path d="M513.697 393.299H508.301C507.942 395.488 507.738 397.725 507.738 400.008C507.738 408.814 510.522 416.962 515.245 423.64H525.177C517.06 415.57 512.837 404.106 513.697 393.299Z" fill="black"/>
<path d="M853.189 423.64H858.257C862.98 416.962 865.764 408.814 865.764 400.008C865.764 397.725 865.561 395.488 865.201 393.299H858.21C861.181 403.699 859.821 415.085 853.189 423.64Z" fill="black"/>
<path class="line" d="M906.618 393.299H373V423.64H906.618V393.299Z" fill="#CEFF82"/>
<path d="M413.836 439.389V360.721H421.187V439.389H413.836Z" fill="black"/>
<path d="M436.578 439.389V360.721H445.571L453.469 428.144H454.564L450.607 360.721H458.505V439.389H449.512L441.661 371.966H440.504L444.445 439.389H436.578Z" fill="black"/>
<path d="M603.484 439.389V360.721H610.835C614.495 360.721 617.466 362.347 619.75 365.569C622.033 368.807 623.175 373.749 623.175 380.411C623.175 393.142 619.062 399.508 610.835 399.508V400.602H612.477C615.84 400.602 618.467 401.588 620.344 403.543C622.237 405.498 623.175 408.266 623.175 411.848V433.79C623.175 435.151 623.3 436.23 623.566 437.059C623.816 437.888 624.098 438.373 624.395 438.514L624.895 438.842V439.389H619.797C618.374 439.389 617.373 439.03 616.778 438.326C616.2 437.606 615.902 436.293 615.902 434.353V411.848C615.902 408.485 614.401 406.796 611.398 406.796H610.851V439.389H603.484ZM610.835 393.299H611.383C612.227 393.299 612.9 393.017 613.416 392.47C613.932 391.922 614.37 390.671 614.729 388.716C615.089 386.761 615.277 383.977 615.277 380.38C615.277 376.783 615.089 374.015 614.729 372.075C614.37 370.136 613.916 368.885 613.384 368.322C612.853 367.759 612.18 367.477 611.383 367.477H610.835V393.299Z" fill="black"/>
<path d="M638.018 439.389V360.721H648.168L652.062 391.656H652.672L656.567 360.721H666.717V439.389H658.819L661.665 371.966H660.508L654.909 409.048H649.81L644.211 371.966H643.116L645.916 439.389H638.018Z" fill="black"/>
<path d="M505.405 367.462V360.721H473.922V401.666V439.389H481.82L480.381 405.107H493.628V398.35H480.1L478.802 367.462H505.405Z" fill="black"/>
<path d="M682.107 439.389V360.721H689.458C693.04 360.721 695.996 362.238 698.31 365.272C700.625 368.306 701.798 372.795 701.798 378.707C701.798 384.634 700.641 389.107 698.31 392.141C695.98 395.175 693.04 396.692 689.458 396.692V397.787C698.451 397.787 702.94 404.716 702.924 418.573C702.909 432.43 698.42 439.358 689.458 439.358H682.107V439.389ZM689.458 390.515H690.006C691.288 390.515 692.258 389.748 692.915 388.216C693.571 386.683 693.9 383.696 693.9 379.27C693.9 376.048 693.712 373.545 693.353 371.747C692.993 369.948 692.539 368.791 692.007 368.259C691.476 367.727 690.803 367.462 690.006 367.462H689.458V390.515ZM689.458 432.633H690.006C691.069 432.633 691.929 432.289 692.586 431.616C693.243 430.944 693.822 429.474 694.307 427.222C694.807 424.969 695.042 421.904 695.042 418.025C695.042 412.536 694.604 408.829 693.744 406.89C692.883 404.95 691.632 403.981 689.99 403.981H689.443V432.633H689.458Z" fill="black"/>
<path d="M716.656 419.746V360.721H724.007V419.151C724.007 429.239 724.945 434.306 726.807 434.322C728.668 434.338 729.606 429.286 729.606 419.151V360.721H736.894V419.746C736.894 433.603 733.516 440.531 726.775 440.531C720.019 440.547 716.656 433.603 716.656 419.746Z" fill="black"/>
<path d="M752.283 439.389V360.721H759.634C763.294 360.721 766.265 362.347 768.549 365.569C770.832 368.807 771.974 373.749 771.974 380.411C771.974 393.142 767.861 399.508 759.634 399.508V400.602H761.276C764.639 400.602 767.266 401.588 769.143 403.543C771.035 405.498 771.974 408.266 771.974 411.848V433.79C771.974 435.151 772.099 436.23 772.365 437.059C772.615 437.888 772.897 438.373 773.194 438.514L773.694 438.842V439.389H768.596C767.172 439.389 766.171 439.03 765.577 438.326C764.998 437.606 764.701 436.293 764.701 434.353V411.848C764.701 408.485 763.2 406.796 760.197 406.796H759.65V439.389H752.283ZM759.634 393.299H760.181C761.026 393.299 761.698 393.017 762.215 392.47C762.731 391.922 763.169 390.671 763.528 388.716C763.888 386.761 764.076 383.977 764.076 380.38C764.076 376.783 763.888 374.015 763.528 372.075C763.169 370.136 762.715 368.885 762.183 368.322C761.651 367.759 760.979 367.477 760.181 367.477H759.634V393.299Z" fill="black"/>
<path d="M548.73 359.031C528.382 359.031 511.507 373.874 508.301 393.314H513.697C514.26 386.292 516.965 379.551 522.158 374.218C535.452 360.564 558.348 362.816 572.002 376.11C585.656 389.404 588.205 412.567 574.911 426.205C561.617 439.843 539.096 437.215 525.458 423.921C525.364 423.827 525.27 423.734 525.192 423.64H515.261C522.689 434.134 534.904 441 548.746 441C571.376 441 589.738 422.654 589.738 400.008C589.738 377.361 571.376 359.031 548.73 359.031Z" fill="black"/>
<path d="M853.193 423.64C852.505 424.516 851.77 425.376 850.972 426.189C837.678 439.843 815.157 437.2 801.519 423.906C787.881 410.612 784.925 387.84 798.219 374.186C811.513 360.533 834.41 362.785 848.063 376.079C852.958 380.849 856.415 386.87 858.229 393.283H865.22C862.014 373.842 845.139 359 824.791 359C802.16 359 783.799 377.346 783.799 399.992C783.799 422.639 802.144 440.984 824.791 440.984C838.632 440.984 850.847 434.118 858.276 423.624H853.193V423.64Z" fill="black"/>
</svg>
